<svg width="26" height="26" viewBox="0 0 26 26" fill="none" xmlns="http://www.w3.org/2000/svg">
<g clip-path="url(#clip0_19_3662)">
<path d="M12.6914 0.402832C5.71918 0.402832 0.0662842 6.05573 0.0662842 13.028C0.0662842 20.0002 5.71918 25.6531 12.6914 25.6531C19.6636 25.6531 25.3165 20.0002 25.3165 13.028C25.3165 6.05573 19.6636 0.402832 12.6914 0.402832ZM18.54 9.53553L12.4926 18.7787C12.491 18.7803 12.4878 18.7818 12.4878 18.7834C12.4563 18.8308 12.4389 18.8844 12.3994 18.9286C12.3442 18.9886 12.2732 19.0201 12.2101 19.0659C12.1943 19.077 12.1785 19.0896 12.1611 19.1006C12.0633 19.1622 11.9623 19.2032 11.8518 19.23C11.8155 19.2395 11.7824 19.249 11.7445 19.2553C11.6566 19.2674 11.5676 19.2684 11.4794 19.2584C11.4171 19.2545 11.3553 19.245 11.2947 19.23C11.2322 19.2112 11.1715 19.1869 11.1133 19.1574C11.0628 19.1338 11.0091 19.1275 10.9618 19.0975C10.927 19.0754 10.9081 19.0407 10.8781 19.0138C10.8655 19.0028 10.8497 18.9996 10.8371 18.9886L7.31626 15.7329C7.10756 15.5325 6.98581 15.2582 6.97718 14.969C6.96854 14.6798 7.0737 14.3988 7.27007 14.1863C7.46643 13.9738 7.73833 13.8468 8.02731 13.8327C8.31629 13.8185 8.59929 13.9183 8.81549 14.1106L11.3642 16.4683L16.6904 8.32667C16.8507 8.0814 17.1019 7.90986 17.3887 7.84978C17.6755 7.7897 17.9744 7.846 18.2196 8.00631C18.4649 8.16661 18.6364 8.41779 18.6965 8.70457C18.7566 8.99135 18.7003 9.29026 18.54 9.53553Z" fill="#4540D9"/>
</g>
<defs>
<clipPath id="clip0_19_3662">
<rect width="25.2502" height="25.2502" fill="white" transform="translate(0 0.402832)"/>
</clipPath>
</defs>
</svg>
